<?xml version="1.0" encoding="UTF-8" standalone="no"?>
<!-- Created with Inkscape (http://www.inkscape.org/) -->

<svg
   xmlns:dc="http://purl.org/dc/elements/1.1/"
   xmlns:cc="http://creativecommons.org/ns#"
   xmlns:rdf="http://www.w3.org/1999/02/22-rdf-syntax-ns#"
   xmlns:svg="http://www.w3.org/2000/svg"
   xmlns="http://www.w3.org/2000/svg"
   xmlns:sodipodi="http://sodipodi.sourceforge.net/DTD/sodipodi-0.dtd"
   xmlns:inkscape="http://www.inkscape.org/namespaces/inkscape"
   width="500"
   height="500"
   id="svg2"
   version="1.1"
   inkscape:version="0.48.5 r10040"
   sodipodi:docname="objects.svg">
  <defs
     id="defs4">
    <filter
       inkscape:collect="always"
       id="filter3949"
       x="-0.17478786"
       width="1.3495757"
       y="-0.091362202"
       height="1.1827244">
      <feGaussianBlur
         inkscape:collect="always"
         stdDeviation="8.6730481"
         id="feGaussianBlur3951" />
    </filter>
    <filter
       inkscape:collect="always"
       id="filter3953"
       x="-0.17508178"
       width="1.3501636"
       y="-0.091282103"
       height="1.1825642">
      <feGaussianBlur
         inkscape:collect="always"
         stdDeviation="8.6778092"
         id="feGaussianBlur3955" />
    </filter>
  </defs>
  <sodipodi:namedview
     id="base"
     pagecolor="#ffffff"
     bordercolor="#666666"
     borderopacity="1.0"
     inkscape:pageopacity="0.0"
     inkscape:pageshadow="2"
     inkscape:zoom="0.54376511"
     inkscape:cx="183.8517"
     inkscape:cy="243.82242"
     inkscape:document-units="px"
     inkscape:current-layer="layer1"
     showgrid="true"
     inkscape:showpageshadow="false"
     showborder="true"
     borderlayer="false"
     inkscape:window-width="1280"
     inkscape:window-height="657"
     inkscape:window-x="-8"
     inkscape:window-y="-8"
     inkscape:window-maximized="1"
     inkscape:snap-global="false">
    <inkscape:grid
       type="xygrid"
       id="grid2985"
       empspacing="1"
       visible="true"
       enabled="true"
       snapvisiblegridlinesonly="true"
       spacingx="25px"
       spacingy="25px" />
  </sodipodi:namedview>
  <metadata
     id="metadata7">
    <rdf:RDF>
      <cc:Work
         rdf:about="">
        <dc:format>image/svg+xml</dc:format>
        <dc:type
           rdf:resource="http://purl.org/dc/dcmitype/StillImage" />
        <dc:title></dc:title>
      </cc:Work>
    </rdf:RDF>
  </metadata>
  <g
     inkscape:label="Layer 1"
     inkscape:groupmode="layer"
     id="layer1"
     transform="translate(0,-552.36218)">
    <g
       id="g3997"
       transform="translate(52.189774,-1.8390503)"
       inkscape:export-filename="C:\Users\Chris\Documents\Square Pug Limited\Other\Media to distribute for promotion\Distributing graphics\crate-preview.png"
       inkscape:export-xdpi="125.31"
       inkscape:export-ydpi="125.31">
      <rect
         ry="3"
         y="736.55731"
         x="-229.53246"
         height="150"
         width="150"
         id="rect2985"
         style="fill:#a75817;fill-opacity:1;fill-rule:evenodd;stroke:#6f401e;stroke-width:4;stroke-linecap:round;stroke-linejoin:round;stroke-miterlimit:4;stroke-opacity:1;stroke-dasharray:none;stroke-dashoffset:0" />
      <rect
         style="fill:#a75817;fill-opacity:1;fill-rule:evenodd;stroke:#6f401e;stroke-width:4;stroke-linecap:round;stroke-linejoin:round;stroke-miterlimit:4;stroke-opacity:1;stroke-dasharray:none;stroke-dashoffset:0"
         id="rect3755"
         width="100"
         height="100"
         x="-204.53246"
         y="761.55731"
         ry="2" />
      <path
         style="fill:none;stroke:#6f401e;stroke-width:4;stroke-linecap:butt;stroke-linejoin:miter;stroke-miterlimit:4;stroke-opacity:1;stroke-dasharray:none"
         d="m -204.53245,786.55733 99.99999,0"
         id="path3759"
         inkscape:connector-curvature="0" />
      <path
         inkscape:connector-curvature="0"
         id="path3761"
         d="m -204.53246,836.55733 100,0"
         style="fill:none;stroke:#6f401e;stroke-width:4;stroke-linecap:butt;stroke-linejoin:miter;stroke-miterlimit:4;stroke-opacity:1;stroke-dasharray:none" />
      <rect
         y="763.44287"
         x="-202.6469"
         height="6.8862729"
         width="96.001297"
         id="rect3763"
         style="opacity:0.32958799;fill:#de7826;fill-opacity:1;fill-rule:evenodd;stroke:none" />
      <rect
         style="opacity:0.32958799;fill:#de7826;fill-opacity:1;fill-rule:evenodd;stroke:none"
         id="rect3765"
         width="96.001297"
         height="6.8862729"
         x="-202.6469"
         y="788.4754" />
      <rect
         y="838.35907"
         x="-202.41701"
         height="6.8862729"
         width="96.001297"
         id="rect3767"
         style="opacity:0.32958799;fill:#de7826;fill-opacity:1;fill-rule:evenodd;stroke:none" />
      <rect
         style="opacity:0.32958799;fill:#de7826;fill-opacity:1;fill-rule:evenodd;stroke:none"
         id="rect3783"
         width="146.22978"
         height="7.5759091"
         x="-227.70367"
         y="738.38611" />
    </g>
    <g
       id="g3983"
       transform="translate(38.434162,-2.7585449)"
       inkscape:export-filename="C:\Users\Chris\Documents\Square Pug Limited\Other\Media to distribute for promotion\Distributing graphics\crate-preview.png"
       inkscape:export-xdpi="125.31"
       inkscape:export-ydpi="125.31">
      <rect
         style="fill:#a75817;fill-opacity:1;fill-rule:evenodd;stroke:#6f401e;stroke-width:4;stroke-linecap:round;stroke-linejoin:round;stroke-miterlimit:4;stroke-opacity:1;stroke-dasharray:none;stroke-dashoffset:0"
         id="rect3769"
         width="150"
         height="150"
         x="-27.698994"
         y="737.47681"
         ry="3" />
      <rect
         ry="2"
         y="761.55731"
         x="-4.5324597"
         height="100"
         width="100"
         id="rect3771"
         style="fill:#a75817;fill-opacity:1;fill-rule:evenodd;stroke:#6f401e;stroke-width:4;stroke-linecap:round;stroke-linejoin:round;stroke-miterlimit:4;stroke-opacity:1;stroke-dasharray:none;stroke-dashoffset:0" />
      <path
         inkscape:connector-curvature="0"
         id="path3787"
         d="m -2.8295696,788.16733 73.4209596,73.09587 24.47365,24.36528 24.47365,0 0,-24.36528 -122.3682596,-121.82644 -24.4736604,0 0,24.36529 z"
         style="fill:#a75817;fill-opacity:1;stroke:#6f401e;stroke-width:3.90710545;stroke-linecap:round;stroke-linejoin:round;stroke-miterlimit:4;stroke-opacity:1;stroke-dasharray:none" />
      <path
         style="fill:#a75817;fill-opacity:1;stroke:#6f401e;stroke-width:3.90710545;stroke-linecap:round;stroke-linejoin:round;stroke-miterlimit:4;stroke-opacity:1;stroke-dasharray:none"
         d="m 95.06503,788.16733 -73.42096,73.09587 -24.4736496,24.36528 -24.4736504,0 0,-24.36528 122.36826,-121.82644 24.47366,0 0,24.36529 z"
         id="path3789"
         inkscape:connector-curvature="0" />
      <path
         sodipodi:nodetypes="ccccc"
         inkscape:connector-curvature="0"
         id="rect3791"
         d="m 24.01348,763.32798 44.04872,-0.11494 -5.86191,5.85181 -31.75021,0.5747 z"
         style="opacity:0.32958799;fill:#de7826;fill-opacity:1;fill-rule:evenodd;stroke:none" />
      <path
         style="opacity:0.32958799;fill:#de7826;fill-opacity:1;fill-rule:evenodd;stroke:none"
         d="m 26.53298,859.3328 39.09098,0.11494 -5.20215,-5.85181 -28.17668,-0.5747 z"
         id="path3794"
         inkscape:connector-curvature="0"
         sodipodi:nodetypes="ccccc" />
      <path
         style="opacity:0.32958799;fill:#de7826;fill-opacity:1;fill-rule:evenodd;stroke:none"
         d="m -2.4417896,833.30011 -0.11495,-41.77304 5.85181,5.55907 0.5747,30.1099 z"
         id="path3796"
         inkscape:connector-curvature="0"
         sodipodi:nodetypes="ccccc" />
      <path
         sodipodi:nodetypes="ccccc"
         inkscape:connector-curvature="0"
         id="path3798"
         d="m 93.31919,831.99972 0.11495,-39.49735 -5.85181,5.25622 -0.5747,28.4696 z"
         style="opacity:0.32958799;fill:#de7826;fill-opacity:1;fill-rule:evenodd;stroke:none" />
      <path
         transform="translate(-282.78343,557.65616)"
         d="m 273.32572,194.951 c 0,2.79309 -2.21278,5.05733 -4.94239,5.05733 -2.72961,0 -4.94239,-2.26424 -4.94239,-5.05733 0,-2.79308 2.21278,-5.05733 4.94239,-5.05733 2.72961,0 4.94239,2.26425 4.94239,5.05733 z"
         sodipodi:ry="5.0573306"
         sodipodi:rx="4.9423914"
         sodipodi:cy="194.951"
         sodipodi:cx="268.38333"
         id="path3800"
         style="fill:#574f41;fill-opacity:1;fill-rule:evenodd;stroke:#403823;stroke-width:2;stroke-linecap:round;stroke-linejoin:round;stroke-miterlimit:4;stroke-opacity:1;stroke-dasharray:none;stroke-dashoffset:0"
         sodipodi:type="arc" />
      <path
         sodipodi:type="arc"
         style="fill:#574f41;fill-opacity:1;fill-rule:evenodd;stroke:#403823;stroke-width:2;stroke-linecap:round;stroke-linejoin:round;stroke-miterlimit:4;stroke-opacity:1;stroke-dasharray:none;stroke-dashoffset:0"
         id="path3802"
         sodipodi:cx="268.38333"
         sodipodi:cy="194.951"
         sodipodi:rx="4.9423914"
         sodipodi:ry="5.0573306"
         d="m 273.32572,194.951 c 0,2.79309 -2.21278,5.05733 -4.94239,5.05733 -2.72961,0 -4.94239,-2.26424 -4.94239,-5.05733 0,-2.79308 2.21278,-5.05733 4.94239,-5.05733 2.72961,0 4.94239,2.26425 4.94239,5.05733 z"
         transform="translate(-162.78343,557.65616)" />
      <path
         sodipodi:type="arc"
         style="fill:#574f41;fill-opacity:1;fill-rule:evenodd;stroke:#403823;stroke-width:2;stroke-linecap:round;stroke-linejoin:round;stroke-miterlimit:4;stroke-opacity:1;stroke-dasharray:none;stroke-dashoffset:0"
         id="path3804"
         sodipodi:cx="268.38333"
         sodipodi:cy="194.951"
         sodipodi:rx="4.9423914"
         sodipodi:ry="5.0573306"
         d="m 273.32572,194.951 c 0,2.79309 -2.21278,5.05733 -4.94239,5.05733 -2.72961,0 -4.94239,-2.26424 -4.94239,-5.05733 0,-2.79308 2.21278,-5.05733 4.94239,-5.05733 2.72961,0 4.94239,2.26425 4.94239,5.05733 z"
         transform="translate(-282.78343,677.65616)" />
      <path
         transform="translate(-162.78343,677.65616)"
         d="m 273.32572,194.951 c 0,2.79309 -2.21278,5.05733 -4.94239,5.05733 -2.72961,0 -4.94239,-2.26424 -4.94239,-5.05733 0,-2.79308 2.21278,-5.05733 4.94239,-5.05733 2.72961,0 4.94239,2.26425 4.94239,5.05733 z"
         sodipodi:ry="5.0573306"
         sodipodi:rx="4.9423914"
         sodipodi:cy="194.951"
         sodipodi:cx="268.38333"
         id="path3806"
         style="fill:#574f41;fill-opacity:1;fill-rule:evenodd;stroke:#403823;stroke-width:2;stroke-linecap:round;stroke-linejoin:round;stroke-miterlimit:4;stroke-opacity:1;stroke-dasharray:none;stroke-dashoffset:0"
         sodipodi:type="arc" />
    </g>
    <rect
       ry="3"
       y="734.71826"
       x="198.81302"
       height="150"
       width="150"
       id="rect3808"
       style="fill:#a75817;fill-opacity:1;fill-rule:evenodd;stroke:#6f401e;stroke-width:4;stroke-linecap:round;stroke-linejoin:round;stroke-miterlimit:4;stroke-opacity:1;stroke-dasharray:none;stroke-dashoffset:0"
       inkscape:export-filename="C:\Users\Chris\Documents\Square Pug Limited\Other\Media to distribute for promotion\Distributing graphics\crate-preview.png"
       inkscape:export-xdpi="125.31"
       inkscape:export-ydpi="125.31" />
    <rect
       style="fill:#a75817;fill-opacity:1;fill-rule:evenodd;stroke:#6f401e;stroke-width:4;stroke-linecap:round;stroke-linejoin:round;stroke-miterlimit:4;stroke-opacity:1;stroke-dasharray:none;stroke-dashoffset:0"
       id="rect3810"
       width="100"
       height="100"
       x="223.81302"
       y="759.71826"
       ry="2"
       inkscape:export-filename="C:\Users\Chris\Documents\Square Pug Limited\Other\Media to distribute for promotion\Distributing graphics\crate-preview.png"
       inkscape:export-xdpi="125.31"
       inkscape:export-ydpi="125.31" />
    <path
       style="fill:none;stroke:#6f401e;stroke-width:4;stroke-linecap:butt;stroke-linejoin:miter;stroke-miterlimit:4;stroke-opacity:1;stroke-dasharray:none"
       d="m 223.81302,784.71828 100,0"
       id="path3812"
       inkscape:connector-curvature="0"
       inkscape:export-filename="C:\Users\Chris\Documents\Square Pug Limited\Other\Media to distribute for promotion\Distributing graphics\crate-preview.png"
       inkscape:export-xdpi="125.31"
       inkscape:export-ydpi="125.31" />
    <path
       inkscape:connector-curvature="0"
       id="path3814"
       d="m 223.81302,834.71828 100,0"
       style="fill:none;stroke:#6f401e;stroke-width:4;stroke-linecap:butt;stroke-linejoin:miter;stroke-miterlimit:4;stroke-opacity:1;stroke-dasharray:none"
       inkscape:export-filename="C:\Users\Chris\Documents\Square Pug Limited\Other\Media to distribute for promotion\Distributing graphics\crate-preview.png"
       inkscape:export-xdpi="125.31"
       inkscape:export-ydpi="125.31" />
    <rect
       y="761.60382"
       x="225.69858"
       height="6.8862729"
       width="96.001297"
       id="rect3816"
       style="opacity:0.32958799;fill:#de7826;fill-opacity:1;fill-rule:evenodd;stroke:none"
       inkscape:export-filename="C:\Users\Chris\Documents\Square Pug Limited\Other\Media to distribute for promotion\Distributing graphics\crate-preview.png"
       inkscape:export-xdpi="125.31"
       inkscape:export-ydpi="125.31" />
    <rect
       y="836.52002"
       x="225.9285"
       height="6.8862729"
       width="96.001297"
       id="rect3820"
       style="opacity:0.32958799;fill:#de7826;fill-opacity:1;fill-rule:evenodd;stroke:none"
       inkscape:export-filename="C:\Users\Chris\Documents\Square Pug Limited\Other\Media to distribute for promotion\Distributing graphics\crate-preview.png"
       inkscape:export-xdpi="125.31"
       inkscape:export-ydpi="125.31" />
    <rect
       style="opacity:0.32958799;fill:#de7826;fill-opacity:1;fill-rule:evenodd;stroke:none"
       id="rect3822"
       width="146.22978"
       height="7.5759091"
       x="200.64182"
       y="736.54706"
       inkscape:export-filename="C:\Users\Chris\Documents\Square Pug Limited\Other\Media to distribute for promotion\Distributing graphics\crate-preview.png"
       inkscape:export-xdpi="125.31"
       inkscape:export-ydpi="125.31" />
    <rect
       style="fill:#ff0000;fill-opacity:1;fill-rule:evenodd;stroke:none"
       id="rect3828"
       width="96.092064"
       height="46.321941"
       x="225.76541"
       y="786.43018"
       inkscape:export-filename="C:\Users\Chris\Documents\Square Pug Limited\Other\Media to distribute for promotion\Distributing graphics\crate-preview.png"
       inkscape:export-xdpi="125.31"
       inkscape:export-ydpi="125.31" />
    <text
       xml:space="preserve"
       style="font-size:39.06975555px;font-style:normal;font-variant:normal;font-weight:normal;font-stretch:normal;line-height:125%;letter-spacing:0px;word-spacing:0px;fill:#ffffff;fill-opacity:1;stroke:none;font-family:Rod;-inkscape-font-specification:Rod"
       x="235.75278"
       y="823.57458"
       id="text3824"
       sodipodi:linespacing="125%"
       inkscape:export-filename="C:\Users\Chris\Documents\Square Pug Limited\Other\Media to distribute for promotion\Distributing graphics\crate-preview.png"
       inkscape:export-xdpi="125.31"
       inkscape:export-ydpi="125.31"><tspan
         sodipodi:role="line"
         id="tspan3826"
         x="235.75278"
         y="823.57458">TNT</tspan></text>
    <g
       id="g3953"
       transform="translate(18.243896,-1.1888428)"
       inkscape:export-filename="C:\Users\Chris\Documents\Square Pug Limited\Other\Media to distribute for promotion\Distributing graphics\crate-preview.png"
       inkscape:export-xdpi="125.31"
       inkscape:export-ydpi="125.31">
      <rect
         style="fill:#a75817;fill-opacity:1;fill-rule:evenodd;stroke:#6f401e;stroke-width:4;stroke-linecap:round;stroke-linejoin:round;stroke-miterlimit:4;stroke-opacity:1;stroke-dasharray:none;stroke-dashoffset:0"
         id="rect3837"
         width="150"
         height="150"
         x="368.64697"
         y="735.9071"
         ry="3" />
      <rect
         ry="2"
         y="760.9071"
         x="393.64697"
         height="100"
         width="100"
         id="rect3839"
         style="fill:#a75817;fill-opacity:1;fill-rule:evenodd;stroke:#6f401e;stroke-width:4;stroke-linecap:round;stroke-linejoin:round;stroke-miterlimit:4;stroke-opacity:1;stroke-dasharray:none;stroke-dashoffset:0" />
      <path
         inkscape:connector-curvature="0"
         id="path3841"
         d="m 393.647,785.90713 99.99999,0"
         style="fill:none;stroke:#6f401e;stroke-width:4;stroke-linecap:butt;stroke-linejoin:miter;stroke-miterlimit:4;stroke-opacity:1;stroke-dasharray:none" />
      <path
         style="fill:none;stroke:#6f401e;stroke-width:4;stroke-linecap:butt;stroke-linejoin:miter;stroke-miterlimit:4;stroke-opacity:1;stroke-dasharray:none"
         d="m 393.64699,835.90713 100,0"
         id="path3843"
         inkscape:connector-curvature="0" />
      <rect
         style="opacity:0.32958799;fill:#de7826;fill-opacity:1;fill-rule:evenodd;stroke:none"
         id="rect3845"
         width="96.001297"
         height="6.8862729"
         x="395.53253"
         y="762.79266" />
      <rect
         y="787.8252"
         x="395.53253"
         height="6.8862729"
         width="96.001297"
         id="rect3847"
         style="opacity:0.32958799;fill:#de7826;fill-opacity:1;fill-rule:evenodd;stroke:none" />
      <rect
         style="opacity:0.32958799;fill:#de7826;fill-opacity:1;fill-rule:evenodd;stroke:none"
         id="rect3849"
         width="96.001297"
         height="6.8862729"
         x="395.76245"
         y="837.70886" />
      <rect
         y="737.7359"
         x="370.47577"
         height="7.5759091"
         width="146.22978"
         id="rect3851"
         style="opacity:0.32958799;fill:#de7826;fill-opacity:1;fill-rule:evenodd;stroke:none" />
      <path
         sodipodi:type="arc"
         style="fill:#ffdc2f;fill-opacity:1;fill-rule:evenodd;stroke:#f1bb2a;stroke-width:4;stroke-miterlimit:4;stroke-opacity:1;stroke-dasharray:none"
         id="path3853"
         sodipodi:cx="298.76462"
         sodipodi:cy="447.00909"
         sodipodi:rx="42.587776"
         sodipodi:ry="42.587776"
         d="m 341.35239,447.00909 c 0,23.52058 -19.06719,42.58778 -42.58777,42.58778 -23.52058,0 -42.58778,-19.0672 -42.58778,-42.58778 0,-23.52058 19.0672,-42.58777 42.58778,-42.58777 23.52058,0 42.58777,19.06719 42.58777,42.58777 z"
         transform="matrix(0.23931571,-0.29239613,0.29239613,0.23931571,232.71634,788.92212)" />
      <path
         sodipodi:end="6.2831853"
         sodipodi:start="3.148574"
         transform="matrix(0.75416718,-0.92144208,0.77385026,0.63336859,-400.85419,1223.0221)"
         d="m 702.73934,380.27031 c 0.043,-6.15734 5.06934,-11.114 11.22668,-11.07101 6.12696,0.0428 11.07128,5.02173 11.07128,11.14884 l -11.14912,0 z"
         sodipodi:ry="11.149116"
         sodipodi:rx="11.149116"
         sodipodi:cy="380.34814"
         sodipodi:cx="713.88818"
         id="path3857"
         style="opacity:0.46067415;fill:#fff4be;fill-opacity:1;fill-rule:evenodd;stroke:none"
         sodipodi:type="arc" />
      <path
         transform="matrix(0.28903145,0.2433687,-0.2433687,0.28903145,470.68379,619.63506)"
         d="m 341.35239,447.00909 c 0,23.52058 -19.06719,42.58778 -42.58777,42.58778 -23.52058,0 -42.58778,-19.0672 -42.58778,-42.58778 0,-23.52058 19.0672,-42.58777 42.58778,-42.58777 23.52058,0 42.58777,19.06719 42.58777,42.58777 z"
         sodipodi:ry="42.587776"
         sodipodi:rx="42.587776"
         sodipodi:cy="447.00909"
         sodipodi:cx="298.76462"
         id="path3859"
         style="fill:#ffdc2f;fill-opacity:1;fill-rule:evenodd;stroke:#f1bb2a;stroke-width:4;stroke-miterlimit:4;stroke-opacity:1;stroke-dasharray:none"
         sodipodi:type="arc" />
      <path
         sodipodi:type="arc"
         style="opacity:0.46067415;fill:#fff4be;fill-opacity:1;fill-rule:evenodd;stroke:none"
         id="path3861"
         sodipodi:cx="713.88818"
         sodipodi:cy="380.34814"
         sodipodi:rx="11.149116"
         sodipodi:ry="11.149116"
         d="m 702.73934,380.27031 c 0.043,-6.15734 5.06934,-11.114 11.22668,-11.07101 6.12696,0.0428 11.07128,5.02173 11.07128,11.14884 l -11.14912,0 z"
         transform="matrix(0.91083881,0.76693957,-0.64409517,0.76494537,45.45842,-19.925632)"
         sodipodi:start="3.148574"
         sodipodi:end="6.2831853" />
      <path
         sodipodi:type="arc"
         style="fill:#ffdc2f;fill-opacity:1;fill-rule:evenodd;stroke:#f1bb2a;stroke-width:4;stroke-miterlimit:4;stroke-opacity:1;stroke-dasharray:none"
         id="path3875"
         sodipodi:cx="298.76462"
         sodipodi:cy="447.00909"
         sodipodi:rx="42.587776"
         sodipodi:ry="42.587776"
         d="m 341.35239,447.00909 c 0,23.52058 -19.06719,42.58778 -42.58777,42.58778 -23.52058,0 -42.58778,-19.0672 -42.58778,-42.58778 0,-23.52058 19.0672,-42.58777 42.58778,-42.58777 23.52058,0 42.58777,19.06719 42.58777,42.58777 z"
         transform="matrix(-0.17017842,-0.33735265,0.33735265,-0.17017842,355.44388,974.34784)" />
      <path
         sodipodi:end="6.2831853"
         sodipodi:start="3.148574"
         transform="matrix(-0.53629149,-1.0631157,0.89283138,-0.4503911,495.21233,1729.5426)"
         d="m 702.73934,380.27031 c 0.043,-6.15734 5.06934,-11.114 11.22668,-11.07101 6.12696,0.0428 11.07128,5.02173 11.07128,11.14884 l -11.14912,0 z"
         sodipodi:ry="11.149116"
         sodipodi:rx="11.149116"
         sodipodi:cy="380.34814"
         sodipodi:cx="713.88818"
         id="path3877"
         style="opacity:0.46067415;fill:#fff4be;fill-opacity:1;fill-rule:evenodd;stroke:none"
         sodipodi:type="arc" />
    </g>
    <g
       id="g3939"
       transform="translate(-654.9116,182.38583)"
       inkscape:export-filename="C:\Users\Chris\Documents\Square Pug Limited\Other\Media to distribute for promotion\Distributing graphics\crate-preview.png"
       inkscape:export-xdpi="125.31"
       inkscape:export-ydpi="125.31">
      <rect
         style="fill:#a75817;fill-opacity:1;fill-rule:evenodd;stroke:#6f401e;stroke-width:4;stroke-linecap:round;stroke-linejoin:round;stroke-miterlimit:4;stroke-opacity:1;stroke-dasharray:none;stroke-dashoffset:0"
         id="rect3895"
         width="150"
         height="150"
         x="571.50781"
         y="736.55731"
         ry="3" />
      <rect
         ry="2"
         y="761.55731"
         x="596.50781"
         height="100"
         width="100"
         id="rect3897"
         style="fill:#a75817;fill-opacity:1;fill-rule:evenodd;stroke:#6f401e;stroke-width:4;stroke-linecap:round;stroke-linejoin:round;stroke-miterlimit:4;stroke-opacity:1;stroke-dasharray:none;stroke-dashoffset:0" />
      <path
         inkscape:connector-curvature="0"
         id="path3899"
         d="m 596.50786,786.55733 99.99999,0"
         style="fill:none;stroke:#6f401e;stroke-width:4;stroke-linecap:butt;stroke-linejoin:miter;stroke-miterlimit:4;stroke-opacity:1;stroke-dasharray:none" />
      <path
         style="fill:none;stroke:#6f401e;stroke-width:4;stroke-linecap:butt;stroke-linejoin:miter;stroke-miterlimit:4;stroke-opacity:1;stroke-dasharray:none"
         d="m 596.50785,836.55733 100,0"
         id="path3901"
         inkscape:connector-curvature="0" />
      <rect
         style="opacity:0.32958799;fill:#de7826;fill-opacity:1;fill-rule:evenodd;stroke:none"
         id="rect3903"
         width="96.001297"
         height="6.8862729"
         x="598.39343"
         y="763.44287" />
      <rect
         y="788.4754"
         x="598.39343"
         height="6.8862729"
         width="96.001297"
         id="rect3905"
         style="opacity:0.32958799;fill:#de7826;fill-opacity:1;fill-rule:evenodd;stroke:none" />
      <rect
         style="opacity:0.32958799;fill:#de7826;fill-opacity:1;fill-rule:evenodd;stroke:none"
         id="rect3907"
         width="96.001297"
         height="6.8862729"
         x="598.62329"
         y="838.35907" />
      <rect
         y="738.38611"
         x="573.33661"
         height="7.5759091"
         width="146.22978"
         id="rect3909"
         style="opacity:0.32958799;fill:#de7826;fill-opacity:1;fill-rule:evenodd;stroke:none" />
      <path
         style="fill:#ffffff;fill-opacity:1;stroke:#d1d1d1;stroke-width:0.47520131;stroke-linecap:round;stroke-linejoin:round;stroke-miterlimit:4;stroke-opacity:1;stroke-dasharray:none"
         d="m 651.766,807.65696 c 0,0 0.15852,-2.39191 0.40073,-3.56188 0.57518,-2.77835 1.1055,-5.66162 2.48479,-8.14109 1.63517,-2.93937 4.22884,-5.25414 6.6468,-7.59234 2.22173,-2.14846 4.53956,-4.25898 7.17708,-5.87001 1.88141,-1.14941 6.06312,-2.64318 6.06312,-2.64318 0.77303,0.37456 1.81295,0.53561 0.86941,2.28342 0,0 -4.3708,1.44549 -6.3632,2.56919 -1.91297,1.079 -3.65578,2.46507 -5.27183,3.9524 -1.62753,1.49796 -2.95497,3.29253 -4.40653,4.96155 -0.907,1.04294 -1.97233,1.97472 -2.68831,3.15698 -1.13205,1.86932 -1.94992,3.95314 -2.45397,6.0796 -0.37305,1.57386 -0.39665,4.83614 -0.39665,4.83614 z"
         id="path3887"
         inkscape:connector-curvature="0"
         sodipodi:nodetypes="cssssccssssscc" />
      <path
         sodipodi:type="arc"
         style="fill:#000000;fill-opacity:1;fill-rule:evenodd;stroke:none"
         id="path3889"
         sodipodi:cx="532.39899"
         sodipodi:cy="483.44873"
         sodipodi:rx="59.768452"
         sodipodi:ry="59.768452"
         d="m 592.16744,483.44873 c 0,33.0092 -26.75925,59.76845 -59.76845,59.76845 -33.00921,0 -59.76845,-26.75925 -59.76845,-59.76845 0,-33.0092 26.75924,-59.76845 59.76845,-59.76845 33.0092,0 59.76845,26.75925 59.76845,59.76845 z"
         transform="matrix(0.40711673,0,0,0.40711673,429.07691,617.57445)" />
      <rect
         style="fill:#000000;fill-opacity:1;fill-rule:evenodd;stroke:none"
         id="rect3891"
         width="10.257182"
         height="5.4491272"
         x="991.87219"
         y="257.79987"
         ry="1.4789573"
         transform="matrix(0.81269957,0.58268294,-0.58268294,0.81269957,0,0)" />
      <path
         sodipodi:end="6.2831853"
         sodipodi:start="3.148574"
         transform="matrix(-1.6067923,-0.93786342,0.78764132,-1.3494247,1490.7281,2001.4642)"
         d="m 702.73934,380.27031 c 0.043,-6.15734 5.06934,-11.114 11.22668,-11.07101 6.12696,0.0428 11.07128,5.02173 11.07128,11.14884 l -11.14912,0 z"
         sodipodi:ry="11.149116"
         sodipodi:rx="11.149116"
         sodipodi:cy="380.34814"
         sodipodi:cx="713.88818"
         id="path3893"
         style="opacity:0.05992509;fill:#c8b7b7;fill-opacity:1;fill-rule:evenodd;stroke:none"
         sodipodi:type="arc" />
    </g>
    <g
       id="g3922"
       transform="translate(-655.1913,186.06387)"
       inkscape:export-filename="C:\Users\Chris\Documents\Square Pug Limited\Other\Media to distribute for promotion\Distributing graphics\crate-preview.png"
       inkscape:export-xdpi="125.31"
       inkscape:export-ydpi="125.31">
      <g
         id="g3864">
        <rect
           ry="3"
           y="732.87927"
           x="759.86536"
           height="150"
           width="150"
           id="rect3848"
           style="fill:#a75817;fill-opacity:1;fill-rule:evenodd;stroke:#6f401e;stroke-width:4;stroke-linecap:round;stroke-linejoin:round;stroke-miterlimit:4;stroke-opacity:1;stroke-dasharray:none;stroke-dashoffset:0" />
        <rect
           style="fill:#a75817;fill-opacity:1;fill-rule:evenodd;stroke:#6f401e;stroke-width:4;stroke-linecap:round;stroke-linejoin:round;stroke-miterlimit:4;stroke-opacity:1;stroke-dasharray:none;stroke-dashoffset:0"
           id="rect3850"
           width="100"
           height="100"
           x="784.86536"
           y="757.87927"
           ry="2" />
        <path
           style="fill:none;stroke:#6f401e;stroke-width:4;stroke-linecap:butt;stroke-linejoin:miter;stroke-miterlimit:4;stroke-opacity:1;stroke-dasharray:none"
           d="m 784.86534,782.87927 99.99999,0"
           id="path3852"
           inkscape:connector-curvature="0" />
        <path
           inkscape:connector-curvature="0"
           id="path3854"
           d="m 784.86533,832.87927 100,0"
           style="fill:none;stroke:#6f401e;stroke-width:4;stroke-linecap:butt;stroke-linejoin:miter;stroke-miterlimit:4;stroke-opacity:1;stroke-dasharray:none" />
        <rect
           y="759.76483"
           x="786.75092"
           height="6.8862729"
           width="96.001297"
           id="rect3856"
           style="opacity:0.32958799;fill:#de7826;fill-opacity:1;fill-rule:evenodd;stroke:none" />
        <rect
           style="opacity:0.32958799;fill:#de7826;fill-opacity:1;fill-rule:evenodd;stroke:none"
           id="rect3858"
           width="96.001297"
           height="6.8862729"
           x="786.75092"
           y="784.79736" />
        <rect
           y="834.68103"
           x="786.98077"
           height="6.8862729"
           width="96.001297"
           id="rect3860"
           style="opacity:0.32958799;fill:#de7826;fill-opacity:1;fill-rule:evenodd;stroke:none" />
        <rect
           style="opacity:0.32958799;fill:#de7826;fill-opacity:1;fill-rule:evenodd;stroke:none"
           id="rect3862"
           width="146.22978"
           height="7.5759091"
           x="761.69409"
           y="734.70807" />
      </g>
      <g
         transform="matrix(-0.32030886,0,0,-0.32030886,822.30815,1192.4678)"
         id="g3969">
        <path
           style="fill:#ff0000;fill-opacity:1;stroke:#000000;stroke-width:4;stroke-linecap:round;stroke-linejoin:round;stroke-miterlimit:4;stroke-opacity:1;stroke-dasharray:none"
           d="m 24.086085,1097.8349 c 0,0 47.88277,95.0746 31.6447,142.4011 -12.34283,35.9736 -56.9018897,63.2894 -94.93408,63.2894 -38.03218,0 -82.591245,-27.3158 -94.934075,-63.2894 -16.23806,-47.3265 31.6447,-142.4011 31.6447,-142.4011 l 31.644685,0 c 0,0 -46.196015,85.5938 -31.644685,126.5787 8.823035,24.8508 36.918805,47.4671 63.289375,47.4671 26.37058,0 54.46635,-22.6163 63.28938,-47.4671 14.55133,-40.9849 -31.6446897,-126.5787 -31.6446897,-126.5787 z"
           id="path3917"
           inkscape:connector-curvature="0"
           sodipodi:nodetypes="csssccssscc" />
        <path
           style="fill:#ffffff;fill-opacity:1;stroke:none"
           d="m -101.66035,1099.0578 c -16.5807,34.44 -14.53212,35.9195 -14.59388,35.6069 l 25.847368,1.1674 c 5.262954,-12.2409 10.890495,-24.4819 17.374787,-36.7228 z"
           id="path3919"
           inkscape:connector-curvature="0"
           sodipodi:nodetypes="ccccc" />
        <path
           sodipodi:nodetypes="ccccc"
           inkscape:connector-curvature="0"
           id="path3923"
           d="m 23.153835,1099.1093 c 6.905924,10.4885 10.194513,25.1129 14.729906,35.3054 l -25.870919,1.9921 -17.3747867,-37.2975 z"
           style="fill:#ffffff;fill-opacity:1;stroke:none" />
        <path
           style="opacity:0.47565541;fill:#7d7d7d;fill-opacity:1;stroke:none;filter:url(#filter3953)"
           d="m 131.4906,1268.5597 -0.353,11.2708 c 0,0 -49.222261,-9.626 -69.07037,-24.7153 -20.76504,-15.7865 -40.396308,-37.6558 -47.248235,-62.8242 -7.0020087,-25.7198 3.856315,-53.5633 9.088376,-79.7006 2.041339,-10.1977 5.85945,-19.9588 8.965268,-29.8842 3.249193,-10.3837 10.114662,-31.0337 10.114662,-31.0337 l 8.057305,0.7965 c 0,0 -12.225987,31.9987 -16.186726,48.4649 -3.641658,15.1397 -7.660418,30.0076 -9.088376,45.4881 -0.753626,8.17 -1.862864,19.3799 -0.431868,27.6854 1.926627,11.1822 4.296817,22.2854 9.492356,31.6675 7.130805,12.8768 17.037289,23.7254 27.910537,33.344 7.449593,6.59 17.402108,14.1998 26.28983,18.6644 7.12542,3.5793 15.781741,6.8687 23.503411,8.8585 6.46539,1.666 18.95682,1.9179 18.95682,1.9179 z"
           id="path3929"
           inkscape:connector-curvature="0"
           sodipodi:nodetypes="ccssssccssssssscc"
           transform="matrix(0.63289384,0,0,0.63289384,-134.13737,479.26842)" />
        <path
           sodipodi:nodetypes="ccssssccssssssscc"
           inkscape:connector-curvature="0"
           id="path3931"
           d="m 166.85707,1269.4792 -0.13465,10.9458 c 0,0 49.54736,-10.7639 69.39547,-25.8532 20.76504,-15.7864 40.55886,-36.1929 47.41079,-61.3613 7.00201,-25.7197 -3.85632,-53.5633 -9.08838,-79.7006 -2.04134,-10.1977 -5.85945,-19.9588 -8.96527,-29.8842 -3.24919,-10.3836 -10.11466,-31.0336 -10.11466,-31.0336 l -8.0573,0.7964 c 0,0 12.22598,31.9987 16.18672,48.4649 3.64166,15.1398 7.66042,30.0077 9.08838,45.4881 0.75362,8.1701 1.21266,19.5425 -0.21833,27.848 -1.92663,11.1821 -3.97172,21.6352 -9.16726,31.0173 -7.1308,12.8769 -16.71219,24.213 -27.58544,33.8316 -7.44959,6.59 -17.56465,13.8747 -26.45238,18.3393 -7.12542,3.5793 -15.61919,7.1938 -23.34086,9.1836 -6.46539,1.666 -18.95682,1.9179 -18.95682,1.9179 z"
           style="opacity:0.47565541;fill:#7d7d7d;fill-opacity:1;stroke:none;filter:url(#filter3949)"
           transform="matrix(0.63289384,0,0,0.63289384,-134.13737,479.26842)" />
      </g>
    </g>
    <g
       id="g3906"
       transform="translate(-658.37248,184.22488)"
       inkscape:export-filename="C:\Users\Chris\Documents\Square Pug Limited\Other\Media to distribute for promotion\Distributing graphics\crate-preview.png"
       inkscape:export-xdpi="125.31"
       inkscape:export-ydpi="125.31">
      <g
         id="g3890">
        <rect
           ry="3"
           y="734.71826"
           x="951.12439"
           height="150"
           width="150"
           id="rect3874"
           style="fill:#a75817;fill-opacity:1;fill-rule:evenodd;stroke:#6f401e;stroke-width:4;stroke-linecap:round;stroke-linejoin:round;stroke-miterlimit:4;stroke-opacity:1;stroke-dasharray:none;stroke-dashoffset:0" />
        <rect
           style="fill:#a75817;fill-opacity:1;fill-rule:evenodd;stroke:#6f401e;stroke-width:4;stroke-linecap:round;stroke-linejoin:round;stroke-miterlimit:4;stroke-opacity:1;stroke-dasharray:none;stroke-dashoffset:0"
           id="rect3876"
           width="100"
           height="100"
           x="976.12439"
           y="759.71826"
           ry="2" />
        <path
           style="fill:none;stroke:#6f401e;stroke-width:4;stroke-linecap:butt;stroke-linejoin:miter;stroke-miterlimit:4;stroke-opacity:1;stroke-dasharray:none"
           d="m 976.1244,784.7183 100,0"
           id="path3878"
           inkscape:connector-curvature="0" />
        <path
           inkscape:connector-curvature="0"
           id="path3880"
           d="m 976.12439,834.7183 100.00001,0"
           style="fill:none;stroke:#6f401e;stroke-width:4;stroke-linecap:butt;stroke-linejoin:miter;stroke-miterlimit:4;stroke-opacity:1;stroke-dasharray:none" />
        <rect
           y="761.60382"
           x="978.00995"
           height="6.8862729"
           width="96.001297"
           id="rect3882"
           style="opacity:0.32958799;fill:#de7826;fill-opacity:1;fill-rule:evenodd;stroke:none" />
        <rect
           style="opacity:0.32958799;fill:#de7826;fill-opacity:1;fill-rule:evenodd;stroke:none"
           id="rect3884"
           width="96.001297"
           height="6.8862729"
           x="978.00995"
           y="786.63635" />
        <rect
           y="836.52002"
           x="978.23987"
           height="6.8862729"
           width="96.001297"
           id="rect3886"
           style="opacity:0.32958799;fill:#de7826;fill-opacity:1;fill-rule:evenodd;stroke:none" />
        <rect
           style="opacity:0.32958799;fill:#de7826;fill-opacity:1;fill-rule:evenodd;stroke:none"
           id="rect3888"
           width="146.22978"
           height="7.5759091"
           x="952.95319"
           y="736.54706" />
      </g>
      <g
         transform="matrix(0.40319325,0.23909104,-0.23909104,0.40319325,1061.3017,296.0722)"
         id="g3900">
        <rect
           transform="matrix(0.00410876,0.99999156,0.99999999,-1.4961525e-4,0,0)"
           style="fill:#ffcc00;fill-opacity:1;fill-rule:evenodd;stroke:#5b5b5b;stroke-width:3.32908607;stroke-linejoin:round;stroke-miterlimit:4;stroke-opacity:1;stroke-dasharray:none"
           id="rect3836"
           width="33.433994"
           height="12.530273"
           x="973.00568"
           y="569.42169" />
        <rect
           y="537.28387"
           x="972.81018"
           height="12.879935"
           width="25.985668"
           id="rect3838"
           style="fill:#ffcc00;fill-opacity:1;fill-rule:evenodd;stroke:#5b5b5b;stroke-width:2.97559905;stroke-linejoin:round;stroke-miterlimit:4;stroke-opacity:1;stroke-dasharray:none"
           transform="matrix(0.00543398,0.99998524,0.99999999,-1.1312683e-4,0,0)" />
        <rect
           y="971.57397"
           x="479.06528"
           height="12.298944"
           width="106.68646"
           id="rect3834"
           style="fill:#ffcc00;fill-opacity:1;fill-rule:evenodd;stroke:#5b5b5b;stroke-width:4;stroke-linejoin:round;stroke-miterlimit:4;stroke-opacity:1;stroke-dasharray:none" />
        <path
           inkscape:connector-curvature="0"
           style="fill:#ffcc00;fill-opacity:1;fill-rule:evenodd;stroke:#666666;stroke-width:4;stroke-miterlimit:4;stroke-opacity:1;stroke-dasharray:none"
           d="m 440.5,386.875 c -21.00693,0 -38.03125,17.45443 -38.03125,39 0,21.54557 17.02432,39 38.03125,39 21.00693,0 38.03125,-17.45443 38.03125,-39 0,-21.54557 -17.02432,-39 -38.03125,-39 z m 0,15.15625 c 12.84741,0 23.28125,10.66692 23.28125,23.84375 0,13.17683 -10.43384,23.875 -23.28125,23.875 -12.84741,0 -23.25,-10.69817 -23.25,-23.875 0,-13.17683 10.40259,-23.84375 23.25,-23.84375 z"
           transform="translate(0,552.36218)"
           id="path3061" />
      </g>
    </g>
  </g>
</svg>
